<?xml version="1.0" encoding="UTF-8"?>
<svg id="Layer_2" data-name="Layer 2" xmlns="http://www.w3.org/2000/svg" xmlns:xlink="http://www.w3.org/1999/xlink" viewBox="0 0 326.57 34.79">
  <defs>
    <style>
      .cls-1 {
        filter: url(#drop-shadow-1);
      }

      .cls-2 {
        fill: #fee2b5;
        stroke-width: 0px;
      }
    </style>
    <filter id="drop-shadow-1" filterUnits="userSpaceOnUse">
      <feOffset dx="2" dy="1"/>
      <feGaussianBlur result="blur" stdDeviation="2"/>
      <feFlood flood-color="#010101" flood-opacity=".36"/>
      <feComposite in2="blur" operator="in"/>
      <feComposite in="SourceGraphic"/>
    </filter>
  </defs>
  <g id="Layer_1-2" data-name="Layer 1">
    <g class="cls-1">
      <path class="cls-2" d="M243.44,12.17c4.74-5.04,13.02-4.59,14.97,1.09,2.56-3.72,6.09-5.15,10.42-4.36,3.58.66,5.4,3.02,5.5,7.07.1,4.15.04,8.31.1,12.46.02,1.31-.43,2.92,1.57,3.38.37.09.28.56.28.88,0,.56-.39.61-.82.62-2.55,0-5.09,0-7.64,0-.48,0-.77-.14-.73-.66.02-.38-.09-.9.47-.94,1.4-.1,1.32-1.21,1.35-2.07.18-4.62.36-9.24-.08-13.85-.29-3.06-1.89-4.63-4.27-4.66-2.69-.04-4.99,1.84-5.56,4.59-.54,2.59-.22,5.21-.26,7.82-.04,1.94-.02,3.88.11,5.82.07.96-.21,2.27,1.46,2.39.47.03.34.65.34,1.03,0,.61-.46.54-.84.54-2.48,0-4.96,0-7.44,0-.39,0-.85.04-.89-.53-.03-.46-.12-.98.56-1.08,1.31-.19,1.27-1.24,1.28-2.15.04-4.35.13-8.71-.01-13.06-.11-3.45-1.7-5.26-4.25-5.36-2.96-.12-5.5,2.05-5.74,5.26-.34,4.47-.23,8.96-.04,13.45.04.88.06,1.78,1.31,1.88.56.05.42.58.44.95.03.54-.31.64-.77.64-2.48,0-4.96,0-7.44,0-.4,0-.85.02-.9-.53-.04-.46-.1-.98.56-1.09,1.2-.18,1.21-1.14,1.21-1.99.03-5.16.02-10.32.01-15.48,0-.88-.08-1.79-1.17-2.06-.61-.15-.69-.57-.61-1.07.09-.58.56-.67,1.04-.75.92-.15,1.85-.31,2.77-.46q3.09-.51,3.69,2.29Z"/>
      <path class="cls-2" d="M224.37,30.06c-2.64,3.35-6.04,4.52-10.03,3.83-3.57-.61-5.47-3.11-5.56-7.25-.08-3.75.02-7.5-.04-11.26-.02-1.31.35-2.86-1.6-3.42-.56-.16-.56-1,.12-1.42.22-.13.51-.19.77-.21,1.99-.15,4.39-1.68,5.79-.56,1.28,1.01.34,3.64.38,5.55.07,3.48,0,6.97.03,10.45.04,3.68,1.5,5.7,4.15,5.84,3.08.17,5.66-1.91,5.88-5.33.26-4.07.08-8.16.03-12.25-.01-.75-.07-1.68-1.13-1.89-.61-.12-.67-.55-.63-1.05.05-.65.57-.67,1.02-.75,1.51-.29,3.03-.56,4.54-.82,1.17-.21,1.76,0,1.73,1.49-.1,5.49-.04,10.99-.04,16.48,0,.6-.07,1.22.05,1.8.14.68-.06,1.63.82,1.89.99.3,1.45-.52,1.81-1.23.33-.65.73-.99,1.41-.6.66.38.28.93.08,1.4-.87,2.15-2.55,3.28-4.8,3.28-2.22,0-3.66-1.04-4.34-3.16-.08-.24-.23-.45-.43-.82Z"/>
      <path class="cls-2" d="M194.48.02c3.15,0,6.3.02,9.45-.01.95-.01,1.51.12,1.46,1.29-.08,2.21-.02,4.42-.03,6.64,0,.53.06,1.09-.76,1.12-.76.02-.8-.41-.91-1-.82-4.77-1.99-5.82-6.92-6.24-1.67-.14-3.34-.16-5.01-.29-.9-.07-1.12.28-1.11,1.13.04,3.82.05,7.64,0,11.46-.02,1.02.35,1.27,1.27,1.2,1.53-.12,3.08-.11,4.61-.28,2.05-.23,3.88-.8,3.81-3.44-.01-.55.25-.83.85-.85.82-.03.82.47.82,1.04,0,2.95,0,5.9,0,8.85,0,.47.07.95-.66.95-.63,0-1.03-.12-1.01-.86.06-2.33-1.42-3.16-3.43-3.35-1.8-.16-3.61-.17-5.4-.36-.88-.09-.83.39-.83.95.01,3.89,0,7.78.05,11.66.01.9.05,1.93,1.37,2.08.68.08.54.68.5,1.12-.05.57-.55.48-.93.48-2.41.01-4.83.01-7.24,0-.42,0-1.02.19-1-.58,0-.44-.16-.98.57-1.06,1.27-.14,1.18-1.21,1.18-2,.04-8.72.04-17.43.02-26.15,0-.79-.04-1.71-1.07-1.92-.6-.12-.75-.4-.71-.95.07-.88.74-.62,1.21-.62,3.28-.02,6.57-.01,9.85-.01Z"/>
      <path class="cls-2" d="M316.1,34.05c-2.91.02-5.74-.37-8.35-1.75-1.4-.74-2.56-1.73-2.85-3.42-.33-1.97.72-3.52,2.59-3.84,1.86-.31,3.41.81,3.76,2.74.76,4.08,4.22,5.88,7.99,4.16,2.51-1.15,2.79-3.55.54-5.17-2.51-1.81-5.44-2.82-8.16-4.24-1.85-.97-3.64-2-4.95-3.67-2.16-2.76-1.65-6.24,1.18-8.26,3.91-2.79,13.1-2.52,16.79.49,1.52,1.24,2.15,3.31,1.42,4.85-.71,1.5-2.02,1.88-3.53,1.65-1.73-.26-2.37-1.46-2.61-3.08-.56-3.79-4.86-5.58-8.11-3.43-1.73,1.15-1.98,2.87-.58,4.42,1.56,1.73,3.69,2.61,5.69,3.67,2.47,1.32,5.1,2.37,7.26,4.21,3.48,2.96,3.07,6.86-.93,9.14-1.79,1.02-4.14,1.51-7.18,1.52Z"/>
      <path class="cls-2" d="M284.56,22.57c.53,3.62,2.14,6.56,5.78,7.72,3.95,1.25,7.36-.04,10.18-2.98.23-.24.48-.47.67-.75.37-.54.78-1.02,1.44-.49.65.52-.04.98-.26,1.37-3.26,5.88-10.09,8.21-16.21,5.57-5.97-2.58-8.9-9.3-6.86-15.75,1.9-6.02,8.21-9.59,14.65-8.34,3.44.67,6.32,2.21,8.07,5.35,2.71,4.86.28,8.95-5.26,8.98-3.96.02-7.84-.78-11.76-1.17-.49-.14-.66,0-.43.49ZM289.8,20.82s0-.08,0-.12c1.6,0,3.21.08,4.8-.03,1.29-.09,2.51-.5,2.99-1.93.82-2.48-.86-6.31-3.37-7.72-2.46-1.38-5.44-.78-7.36,1.54-1.55,1.86-2.15,4.08-2.46,6.44-.2,1.5.29,2.03,1.81,1.85,1.18-.14,2.4-.03,3.6-.03Z"/>
      <path class="cls-2" d="M12.28,34.71c-2.52,0-5.66-.54-8.51-2.16C1.68,31.36.09,29.7,0,27.09c-.06-2.01.96-3.24,2.92-3.41,1.97-.17,3.27.86,3.38,2.89.16,2.89,1.54,4.83,4.21,5.79,2.9,1.04,5.69.7,8.13-1.26,2.24-1.81,2.3-4.57.29-6.69-1.59-1.68-3.7-2.47-5.73-3.38-2.25-1.01-4.55-1.95-6.73-3.1C1.96,15.56.28,12.57.88,8.34,1.45,4.42,4.1,1.82,8.83.84,13.25-.07,17.58.22,21.67,2.36c1.95,1.02,3.28,2.56,3.7,4.75.38,1.95-.76,3.67-2.54,3.98-1.9.33-3.34-.74-3.75-2.79-.96-4.7-3.33-6.5-7.84-5.89-2.22.3-3.91,1.38-4.67,3.59-.74,2.16-.3,4.07,1.27,5.75,1.92,2.06,4.49,3.01,6.97,4.1,2.48,1.09,5.06,1.98,7.36,3.44,5.77,3.65,5.45,10.33-.6,13.58-2.69,1.45-5.57,1.88-9.29,1.84Z"/>
      <path class="cls-2" d="M163.94,14.1c0-3.01.02-5.85-.02-8.69,0-.45-.21-.99-.51-1.31-.47-.49-1.73-.38-1.2-1.57.42-.93,1.41-.57,2.14-.71,5-1.01,5-.99,5,4,0,7.69-.01,15.38.01,23.07,0,1.38-.34,2.96,1.46,3.68.44.17.4.65.31,1.05-.13.53-.58.47-.96.47-1.68.01-3.36-.02-5.05.02-.85.02-1.13-.34-1.09-1.14.04-.8,0-1.6,0-2.38-.25-.15-.42-.19-.59.07-4.18,6.33-14.43,5.6-17.68-3.61-1.75-4.94-1.11-9.69,2.33-13.75,4.32-5.1,10.38-4.78,15.84.81ZM164,22.66c.02-3.93-1.33-7.52-3.37-9.42-2.44-2.28-5.37-2.14-7.59.36-3.41,3.85-3.43,13.25-.02,17.12,2.39,2.71,5.39,2.78,7.88.11,2.26-2.41,2.98-5.41,3.1-8.17Z"/>
      <path class="cls-2" d="M87.51,12.85c2.21-1.9,4.58-3.21,7.53-3.18,4.6.05,7.24,2.4,7.41,7,.15,4.16.06,8.33.12,12.49.02,1.3-.36,2.81,1.46,3.37.48.15.37.65.32,1.04-.07.55-.53.5-.91.5-2.4,0-4.81,0-7.21,0-.41,0-.81-.06-.88-.58-.05-.41,0-.86.44-1,1.55-.51,1.36-1.8,1.37-2.98.02-3.85.05-7.69,0-11.54-.05-3.87-1.67-5.91-4.52-5.86-3.12.06-5.41,2.56-5.46,6.1-.05,3.84-.03,7.69,0,11.54,0,1.09-.13,2.29,1.35,2.72.59.17.53.73.41,1.2-.14.54-.63.4-.99.4-2.32.02-4.65.01-6.97,0-.37,0-.84.07-.97-.45-.13-.51-.08-.98.49-1.18,1.42-.49,1.27-1.7,1.28-2.8.02-4.57.03-9.13,0-13.7,0-1.16.11-2.3-1.37-3-1.03-.49-.6-1.3.46-1.55,1.17-.27,2.34-.5,3.52-.73,2.44-.46,2.59-.36,3.14,2.18Z"/>
      <path class="cls-2" d="M136.16,24.19c-3.18-.38-6.37-.68-9.53-1.16-1.61-.25-1.8.34-1.41,1.64.9,2.98,2.43,5.49,5.62,6.35,3.49.94,6.59.07,9.35-2.35.77-.68,1.35-2.76,2.5-1.72,1,.9-.68,2.17-1.38,3.06-4.27,5.44-12.37,6.32-17.56,2-5.36-4.46-6.11-12.94-1.58-18.09,4.53-5.16,13.2-5.72,18.19-1.14,1.2,1.1,2.11,2.41,2.54,4,1.22,4.43-.91,7.23-5.51,7.28-.4,0-.8,0-1.2,0l-.02.14ZM130.01,21.64s0,.05,0,.07c1.76-.08,3.52-.08,5.26-.26,1.49-.15,2.49-.96,2.73-2.56.41-2.72-1.57-6.21-4.13-7.22-2.59-1.02-5.57.04-7.22,2.73-.66,1.07-1.18,2.29-1.48,3.51-.88,3.59-.73,3.72,2.9,3.72.64,0,1.28,0,1.92,0Z"/>
      <path class="cls-2" d="M69.45,24.05c-1.78-.22-4.9-.49-7.97-1-2.05-.34-2.09.44-1.61,2.03,1.88,6.21,8.59,8.37,13.84,4.38.82-.62,1.49-1.45,2.24-2.16.36-.34.56-1.14,1.29-.54.62.52.13.98-.12,1.46-2.4,4.59-7.52,7.13-12.93,6.39-5.06-.69-9.27-4.73-10.24-9.81-.99-5.19.99-10.41,5.21-13.03,4.7-2.91,9.56-2.85,14.31-.05,2.47,1.46,3.96,3.71,4.22,6.63.34,3.92-1.9,5.74-8.25,5.7ZM65.01,21.64c1.56-.11,3.4.18,5.22-.27,1.44-.36,2.17-1.2,2.32-2.64.29-2.82-1.74-6.21-4.28-7.1-2.72-.96-5.6.26-7.28,3.1-.65,1.11-1.1,2.3-1.33,3.56q-.62,3.35,2.7,3.35c.8,0,1.6,0,2.66,0Z"/>
      <path class="cls-2" d="M33.69,21c0,7.65,5.76,12.28,12.14,9.78,1.68-.66,2.98-1.81,4.17-3.14.4-.45.59-1.6,1.58-.84.81.62-.05,1.16-.32,1.61-3.25,5.62-9.77,7.8-15.78,5.32-5.76-2.38-8.73-8.77-7.03-15.13,1.57-5.9,7.64-9.76,13.93-8.83,2.57.38,4.99,1.16,6.96,2.97,1.62,1.49,2.56,3.32,2.36,5.54-.16,1.83-1.29,2.91-3.18,2.94-1.85.03-3.02-.91-3.32-2.78-.16-1.02-.18-2.08-.43-3.08-.45-1.76-1.29-3.34-3.22-3.83-2.06-.52-3.76.26-5.18,1.75-1.76,1.83-2.67,4.46-2.67,7.72Z"/>
      <path class="cls-2" d="M113.97,22.12c0,2.64-.02,5.28.02,7.92,0,.67-.15,1.54.8,1.79.75.21,1.17-.35,1.55-.87.39-.52.48-1.53,1.52-.89,1.06.64.13,1.32-.11,1.82-1.06,2.25-3.05,3.19-5.53,2.74-2.33-.43-3.34-2.04-3.54-4.22-.49-5.19-.11-10.39-.21-15.58-.03-1.36.3-2.89-1.96-2.56-.71.11-.97-.39-.92-1.07.04-.65.48-.76,1-.72,3.3.24,4.37-1.95,5.17-4.58.22-.73-.19-2.26,1.41-1.96,1.5.28.54,1.56.77,2.37.12.44.05.96.02,1.43-.12,1.71-.16,3.29,2.37,2.75.64-.14,1.05.16,1.01.93-.04.82-.59.94-1.15.84-2.33-.42-2.32.99-2.25,2.65.09,2.4.02,4.8.02,7.2h.01Z"/>
      <path class="cls-2" d="M285.35,8.01c1.41-1.68,2.85-3.34,4.22-5.05,1.13-1.41,2.55-.53,3.92-.56-2.74,1.89-4.15,5.54-7.83,6.09-.1-.16-.2-.32-.3-.48Z"/>
      <path class="cls-2" d="M61.27,7.43c1.72-2.06,3.47-4.1,5.16-6.18,1.29-1.59,3.03-.27,4.57-.73-3.1,2.54-4.82,6.79-9.72,6.91Z"/>
    </g>
  </g>
</svg>